<?xml version="1.0" encoding="UTF-8" standalone="no"?>
<svg width="35px" height="35px" viewBox="0 0 35 35" version="1.1" xmlns="http://www.w3.org/2000/svg" xmlns:xlink="http://www.w3.org/1999/xlink" xmlns:sketch="http://www.bohemiancoding.com/sketch/ns">
    <!-- Generator: Sketch 3.5.1 (25234) - http://www.bohemiancoding.com/sketch -->
    <title>codepen</title>
    <desc>Created with Sketch.</desc>
    <defs></defs>
    <g id="Page-1" stroke="none" stroke-width="1" fill="none" fill-rule="evenodd" sketch:type="MSPage">
        <g id="Desktop-HD" sketch:type="MSArtboardGroup" transform="translate(-678.000000, -538.000000)" fill="#FFFFFF">
            <g id="codepen" sketch:type="MSLayerGroup" transform="translate(678.000000, 538.000000)">
                <path d="M8.56179747,15.9248523 L8.56179747,19.0313608 L10.8840549,17.4781435 L8.56179747,15.9248523 Z" id="Fill-1" sketch:type="MSShapeGroup"></path>
                <path d="M16.5771814,13.6699662 L16.5771814,9.34089451 L9.3049346,14.1886899 L12.5534367,16.3617911 L16.5771814,13.6699662 Z" id="Fill-2" sketch:type="MSShapeGroup"></path>
                <path d="M25.7058681,14.1886825 L18.4335475,9.34088713 L18.4335475,13.6699589 L22.4575876,16.3617838 L25.7058681,14.1886825 Z" id="Fill-3" sketch:type="MSShapeGroup"></path>
                <path d="M9.30491245,20.7675527 L16.5771593,25.6153481 L16.5771593,21.2862025 L12.5534884,18.5950422 L9.30491245,20.7675527 Z" id="Fill-4" sketch:type="MSShapeGroup"></path>
                <path d="M18.4335253,21.2862321 L18.4335253,25.6153776 L25.705846,20.7675823 L22.4575654,18.5950717 L18.4335253,21.2862321 Z" id="Fill-5" sketch:type="MSShapeGroup"></path>
                <path d="M17.5052648,15.2823217 L14.2225749,17.4780918 L17.5052648,19.6739357 L20.7881762,17.4780918 L17.5052648,15.2823217 Z" id="Fill-6" sketch:type="MSShapeGroup"></path>
                <path d="M28.305039,20.7687046 C28.305039,20.8096118 28.3021593,20.8499283 28.296769,20.8902447 C28.2947753,20.9033143 28.2916002,20.9169747 28.289385,20.9300443 C28.2845854,20.9561835 28.2800074,20.9823228 28.2731403,21.0078713 C28.2692268,21.02323 28.2635411,21.0379241 28.2586677,21.0527658 C28.2512838,21.0754346 28.2439736,21.0982511 28.2348914,21.1209937 C28.228615,21.1362785 28.2208618,21.1510464 28.2141424,21.1658143 C28.2041741,21.1868586 28.1939103,21.2072384 28.1826129,21.2277658 C28.174269,21.241943 28.1649652,21.2561941 28.1561044,21.2703713 C28.1436255,21.2897173 28.1309251,21.3084726 28.1169694,21.3266371 C28.1067057,21.3408143 28.0962205,21.353884 28.084923,21.3669536 C28.0703766,21.3839367 28.0550179,21.4009937 28.038847,21.4168692 C28.0265897,21.4294219 28.0146276,21.4419008 28.0019272,21.4532722 C27.9851656,21.4686308 27.9672964,21.4833987 27.9491319,21.4975759 C27.9353977,21.5084304 27.9218112,21.519211 27.9072648,21.5294008 C27.9019483,21.5328713 27.8971487,21.5373755 27.8916846,21.5407722 L18.0202816,28.1219536 C17.8643323,28.2259198 17.6850496,28.2781245 17.50525,28.2781245 C17.3260411,28.2781245 17.1464631,28.2259198 16.9905137,28.1219536 L7.1188154,21.5407722 C7.11364662,21.5373755 7.10884705,21.5328713 7.10375211,21.5294008 C7.0892057,21.519211 7.07532384,21.5084304 7.0616635,21.4975759 C7.04349895,21.4833987 7.02585127,21.4686308 7.00908966,21.4532722 C6.9963154,21.4419008 6.98413186,21.4294219 6.97187447,21.4168692 C6.95570359,21.4009937 6.94071414,21.3839367 6.925577,21.3669536 C6.91479641,21.353884 6.90401582,21.3408143 6.89382595,21.3266371 C6.88016561,21.3084726 6.86709599,21.2897173 6.85483861,21.2703713 C6.84546097,21.2561941 6.83667405,21.241943 6.82818249,21.2277658 C6.81681118,21.2072384 6.80662131,21.1868586 6.79665295,21.1658143 C6.78956435,21.1510464 6.7824019,21.1362785 6.77590401,21.1209937 C6.76682173,21.0982511 6.75914241,21.0754346 6.7520538,21.0527658 C6.74695886,21.0379241 6.74186392,21.02323 6.73758122,21.0078713 C6.73071414,20.9823228 6.72620992,20.9561835 6.7213365,20.9300443 C6.71912131,20.9169747 6.71572468,20.9033143 6.71395253,20.8902447 C6.70856224,20.8499283 6.70546097,20.8096118 6.70546097,20.7687046 L6.70546097,14.1875232 C6.70546097,14.146616 6.70856224,14.1062996 6.71395253,14.0665 C6.71572468,14.0529135 6.71912131,14.0398439 6.7213365,14.0261835 C6.72620992,14.0000443 6.73071414,13.9739051 6.73758122,13.9483565 C6.74186392,13.9329979 6.74695886,13.91823 6.7520538,13.903462 C6.75914241,13.8807194 6.76682173,13.8580506 6.77590401,13.8358249 C6.7824019,13.8205401 6.78956435,13.8051814 6.79665295,13.7904135 C6.80662131,13.7693692 6.81681118,13.7489156 6.82818249,13.7290527 C6.83667405,13.7142848 6.84546097,13.7001076 6.85483861,13.6858565 C6.86709599,13.6665844 6.88016561,13.6478291 6.89382595,13.6295907 C6.90401582,13.6160042 6.91479641,13.6023439 6.925577,13.5893481 C6.94071414,13.5722911 6.95570359,13.5552342 6.97187447,13.5392848 C6.98413186,13.5268059 6.9963154,13.514327 7.00908966,13.5029557 C7.02585127,13.487597 7.04349895,13.4728291 7.0616635,13.4585781 C7.07532384,13.4477975 7.0892057,13.4370169 7.10375211,13.426827 C7.10884705,13.4233565 7.11364662,13.4188523 7.1188154,13.4154557 L16.9905137,6.83427426 C17.3024124,6.62634177 17.7083091,6.62634177 18.0202816,6.83427426 L27.8916846,13.4154557 C27.8971487,13.4188523 27.9019483,13.4233565 27.9072648,13.426827 C27.9218112,13.4370169 27.9353977,13.4477975 27.9491319,13.4585781 C27.9672964,13.4728291 27.9851656,13.487597 28.0019272,13.5029557 C28.0146276,13.514327 28.0265897,13.5268059 28.038847,13.5392848 C28.0550179,13.5552342 28.0703766,13.5722911 28.084923,13.5893481 C28.0962205,13.6023439 28.1067057,13.6160042 28.1169694,13.6295907 C28.1309251,13.6478291 28.1436255,13.6665844 28.1561044,13.6858565 C28.1649652,13.7001076 28.174269,13.7142848 28.1826129,13.7290527 C28.1939103,13.7489156 28.2041741,13.7693692 28.2141424,13.7904135 C28.2208618,13.8051814 28.228615,13.8205401 28.2348914,13.8358249 C28.2439736,13.8580506 28.2512838,13.8807194 28.2586677,13.903462 C28.2635411,13.91823 28.2692268,13.9329979 28.2731403,13.9483565 C28.2800074,13.9739051 28.2845854,14.0000443 28.289385,14.0261835 C28.2916002,14.0398439 28.2947753,14.0529135 28.296769,14.0665 C28.3021593,14.1062996 28.305039,14.146616 28.305039,14.1875232 L28.305039,20.7687046 Z M17.50525,0.0114156118 C7.85905802,0.0114156118 0.0387732068,7.83140506 0.0387732068,17.4781139 C0.0387732068,27.1248966 7.85905802,34.9445169 17.50525,34.9445169 C27.1520327,34.9445169 34.9719483,27.1248966 34.9719483,17.4781139 C34.9719483,7.83140506 27.1520327,0.0114156118 17.50525,0.0114156118 L17.50525,0.0114156118 Z" id="Fill-7" sketch:type="MSShapeGroup"></path>
                <path d="M26.4489462,19.0313829 L26.4489462,15.9248745 L24.127058,17.4780918 L26.4489462,19.0313829 Z" id="Fill-9" sketch:type="MSShapeGroup"></path>
            </g>
        </g>
    </g>
</svg>