<?xml version="1.0" encoding="UTF-8" standalone="no"?>
<svg width="5px" height="18px" viewBox="0 0 5 18" version="1.1" xmlns="http://www.w3.org/2000/svg" xmlns:xlink="http://www.w3.org/1999/xlink" xmlns:sketch="http://www.bohemiancoding.com/sketch/ns">
    <!-- Generator: Sketch 3.5.1 (25234) - http://www.bohemiancoding.com/sketch -->
    <title>Type something</title>
    <desc>Created with Sketch.</desc>
    <defs></defs>
    <g id="Page-1" stroke="none" stroke-width="1" fill="none" fill-rule="evenodd" sketch:type="MSPage">
        <g id="Desktop-HD" sketch:type="MSArtboardGroup" transform="translate(-1327.000000, -474.000000)" fill="#EC0D0D">
            <path d="M1330.46166,486.474163 L1328.47776,486.474163 L1327.88487,474.867188 L1331.04315,474.867188 L1330.46166,486.474163 Z M1327.74805,490.111319 C1327.74805,489.54883 1327.89627,489.121269 1328.19271,488.828623 C1328.48916,488.535977 1328.91102,488.389656 1329.45831,488.389656 C1329.99799,488.389656 1330.41225,488.541677 1330.7011,488.845725 C1330.98994,489.149773 1331.13436,489.571634 1331.13436,490.111319 C1331.13436,490.651004 1330.98804,491.078565 1330.6954,491.394015 C1330.40275,491.709465 1329.99039,491.867188 1329.45831,491.867188 C1328.91862,491.867188 1328.49866,491.715166 1328.19842,491.411118 C1327.89817,491.10707 1327.74805,490.673808 1327.74805,490.111319 L1327.74805,490.111319 Z" id="Type-something" sketch:type="MSShapeGroup"></path>
        </g>
    </g>
</svg>