<?xml version="1.0" encoding="UTF-8" standalone="no"?>
<svg width="35px" height="35px" viewBox="0 0 35 35" version="1.1" xmlns="http://www.w3.org/2000/svg" xmlns:xlink="http://www.w3.org/1999/xlink" xmlns:sketch="http://www.bohemiancoding.com/sketch/ns">
    <!-- Generator: Sketch 3.5.1 (25234) - http://www.bohemiancoding.com/sketch -->
    <title>twitter</title>
    <desc>Created with Sketch.</desc>
    <defs></defs>
    <g id="Page-1" stroke="none" stroke-width="1" fill="none" fill-rule="evenodd" sketch:type="MSPage">
        <g id="Desktop-HD" sketch:type="MSArtboardGroup" transform="translate(-728.000000, -538.000000)" fill="#FFFFFF">
            <path d="M745.5,538 C735.835625,538 728,545.835625 728,555.5 C728,565.164375 735.835625,573 745.5,573 C755.164375,573 763,565.164375 763,555.5 C763,545.835625 755.164375,538 745.5,538 L745.5,538 Z M754.34625,552.065625 C754.613125,557.957292 750.219167,564.525625 742.440417,564.525625 C740.075,564.525625 737.874375,563.831458 736.020833,562.642917 C738.243333,562.905417 740.461458,562.287083 742.221667,560.908958 C740.39,560.875417 738.842708,559.663542 738.3075,557.999583 C738.965208,558.125 739.612708,558.088542 740.200417,557.928125 C738.186458,557.522708 736.795208,555.708542 736.840417,553.7675 C737.40625,554.081042 738.050833,554.269167 738.737708,554.291042 C736.8725,553.044167 736.344583,550.581042 737.44125,548.698333 C739.50625,551.232917 742.593542,552.899792 746.074583,553.074792 C745.463542,550.455625 747.45125,547.93125 750.156458,547.93125 C751.359583,547.93125 752.448958,548.440208 753.213125,549.253958 C754.166875,549.067292 755.065208,548.717292 755.873125,548.2375 C755.559583,549.216042 754.896042,550.035625 754.03125,550.554792 C754.878542,550.452708 755.686458,550.228125 756.436042,549.894167 C755.876042,550.737083 755.167292,551.475 754.34625,552.065625 L754.34625,552.065625 Z" id="twitter" sketch:type="MSShapeGroup"></path>
        </g>
    </g>
</svg>